<svg viewBox="0 0 500 525" fill="none" xmlns="http://www.w3.org/2000/svg"><circle r="36.7" transform="matrix(-1 0 0 1 94 138)" fill="#000"/><path d="m88 133 68 68" stroke="#000" stroke-width="18.3"/><circle cx="393.6" cy="138.1" r="36.7" fill="#000"/><path d="m400 133-68 68" stroke="#000" stroke-width="18.3"/><path fill-rule="evenodd" clip-rule="evenodd" d="M105 357c-20-9-32-31-28-52 17-93 86-162 168-162 83 0 152 70 168 163 4 21-8 42-27 52a328 328 0 0 1-281-1Z" fill="#FFDF6F"/><path d="m413 306-9 1 9-1Zm-27 52-4-9 4 9ZM86 307c16-90 82-155 159-155v-18c-88 0-160 74-177 169l18 4Zm159-155c77 0 143 65 159 155l18-3c-17-96-89-170-177-170v18Zm137 197c-42 20-88 31-136 31v18c51 0 100-12 143-32l-7-17Zm-136 31c-49 0-96-11-138-31l-7 16c44 21 93 33 145 33v-18Zm158-73c3 17-6 35-22 42l7 17c24-11 38-36 33-62l-18 3Zm-336-4c-5 26 9 51 33 62l7-16c-16-8-25-25-22-42l-18-4Z" fill="#000"/><path fill-rule="evenodd" clip-rule="evenodd" d="M140 334c-16-6-26-23-20-40 17-50 67-86 125-86 59 0 108 36 125 86 6 17-4 34-20 40a279 279 0 0 1-210 0Z" fill="#000"/><ellipse cx="287.3" cy="286.1" rx="30.6" ry="24.4" fill="#fff"/><ellipse cx="199.8" cy="286.1" rx="30.6" ry="24.4" fill="#fff"/></svg>
