<svg xmlns="http://www.w3.org/2000/svg" width="86" height="86" viewBox="0 0 86 86"><defs><linearGradient x1="50%" y1="2.84%" x2="50%" y2="100%" id="b"><stop stop-color="#174697" offset="0%"/><stop stop-color="#0C2550" offset="100%"/></linearGradient><linearGradient x1="50%" y1="0%" x2="50%" y2="97.88%" id="c"><stop stop-color="#3F78DC" offset="0%"/><stop stop-color="#2F5FB3" offset="100%"/></linearGradient><linearGradient x1="50%" y1="2.73%" x2="50%" y2="100%" id="d"><stop stop-color="#8BD7F9" offset="0%"/><stop stop-color="#68BBE1" offset="100%"/></linearGradient><filter x="-15.6%" y="-15.4%" width="131.2%" height="130.8%" filterUnits="objectBoundingBox" id="a"><feOffset dy="2" in="SourceAlpha" result="shadowOffsetOuter1"/><feGaussianBlur stdDeviation="2" in="shadowOffsetOuter1" result="shadowBlurOuter1"/><feColorMatrix values="0 0 0 0 0 0 0 0 0 0 0 0 0 0 0 0 0 0 0.137729458 0" in="shadowBlurOuter1" result="shadowMatrixOuter1"/><feMerge><feMergeNode in="shadowMatrixOuter1"/><feMergeNode in="SourceGraphic"/></feMerge></filter></defs><g filter="url(#a)" transform="translate(4 2)" fill="none" fill-rule="evenodd"><path d="M21.8 0h33.4c7.58 0 10.33.79 13.1 2.27a15.45 15.45 0 0 1 6.43 6.43C76.2 11.47 77 14.22 77 21.8v33.4c0 7.58-.79 10.33-2.27 13.1a15.45 15.45 0 0 1-6.43 6.43C65.53 76.2 62.78 77 55.2 77H21.8c-7.58 0-10.33-.79-13.1-2.27a15.45 15.45 0 0 1-6.43-6.43C.8 65.53 0 62.78 0 55.2V21.8c0-7.58.79-10.33 2.27-13.1A15.45 15.45 0 0 1 8.7 2.27C11.47.8 14.22 0 21.8 0Z" fill="url(#b)"/><path d="M21.8 18h33.4c7.58 0 10.33.79 13.1 2.27a15.45 15.45 0 0 1 6.43 6.43C76.2 29.47 77 32.22 77 39.8v14.4c0 7.58-.79 10.33-2.27 13.1a15.45 15.45 0 0 1-6.43 6.43C65.53 75.2 62.78 76 55.2 76H21.8c-7.58 0-10.33-.79-13.1-2.27a15.45 15.45 0 0 1-6.43-6.43C.8 64.53 0 61.78 0 54.2V39.8c0-7.58.79-10.33 2.27-13.1a15.45 15.45 0 0 1 6.43-6.43C11.47 18.8 14.22 18 21.8 18Z" fill="url(#c)"/><path d="M19.4 37h38.2c4.7 0 7.93.79 10.7 2.27a15.45 15.45 0 0 1 6.43 6.43c1.48 2.77 2.27 6 2.27 10.7v2.2c0 4.7-.79 7.93-2.27 10.7a15.45 15.45 0 0 1-6.43 6.43C65.53 77.2 62.3 78 57.6 78H19.4c-4.7 0-7.93-.79-10.7-2.27a15.45 15.45 0 0 1-6.43-6.43C.8 66.53 0 63.3 0 58.6v-2.2c0-4.7.79-7.93 2.27-10.7a15.45 15.45 0 0 1 6.43-6.43c2.77-1.48 6-2.27 10.7-2.27Z" fill="url(#d)"/><path d="M41.95 60.2c0 .77-.09 1.47-.25 2.09a4.8 4.8 0 0 1-.74 1.58 3.26 3.26 0 0 1-2.76 1.35c-.3 0-.57-.02-.82-.08a2.8 2.8 0 0 1-.73-.27 4 4 0 0 1-.68-.47 6.46 6.46 0 0 1-.69-.68v.95a.3.3 0 0 1-.05.18.4.4 0 0 1-.18.12c-.08.03-.19.06-.33.07a5.37 5.37 0 0 1-1.32-.07.36.36 0 0 1-.17-.12.32.32 0 0 1-.05-.18V51.83c0-.07.02-.13.06-.18.04-.05.1-.1.2-.13a4.96 4.96 0 0 1 1.94 0c.1.03.16.08.2.13.04.05.06.11.06.18v4.81a5.13 5.13 0 0 1 1.33-.95c.22-.1.45-.18.68-.22a3.88 3.88 0 0 1 2.39.32c.44.25.81.6 1.1 1.04.28.43.48.94.61 1.52.13.59.2 1.2.2 1.85Zm-2.55.17c0-.37-.03-.73-.08-1.07a3.07 3.07 0 0 0-.29-.92 1.78 1.78 0 0 0-.53-.64c-.22-.16-.5-.24-.83-.24a1.7 1.7 0 0 0-.96.3c-.17.11-.34.26-.51.43-.18.18-.36.4-.56.66v2.89c.35.44.68.78 1 1 .3.24.64.35.98.35.32 0 .6-.08.81-.24.23-.16.4-.37.56-.63.14-.26.25-.56.31-.9.07-.32.1-.66.1-.99Zm6.89 4.3c0 .06-.02.12-.06.17a.43.43 0 0 1-.2.12 5.94 5.94 0 0 1-1.94 0 .43.43 0 0 1-.2-.12.27.27 0 0 1-.06-.17V51.83c0-.07.02-.13.05-.18.04-.05.11-.1.2-.13a4.96 4.96 0 0 1 1.94 0c.1.03.17.08.2.13.05.05.07.11.07.18v12.84Zm10.62 0a.3.3 0 0 1-.04.17.36.36 0 0 1-.18.12c-.08.03-.18.06-.32.07a4.28 4.28 0 0 1-1.34-.07.36.36 0 0 1-.17-.12.3.3 0 0 1-.05-.17v-1c-.48.51-.97.9-1.47 1.16a3.47 3.47 0 0 1-3.06.1 2.6 2.6 0 0 1-.98-.8 3.22 3.22 0 0 1-.54-1.18c-.1-.44-.16-1-.16-1.66v-5.33c0-.07.02-.13.06-.17a.4.4 0 0 1 .2-.13 5.97 5.97 0 0 1 1.94 0c.09.04.16.08.2.13.04.04.05.1.05.17v4.92c0 .45.03.8.1 1.04.05.24.14.45.26.62.12.18.27.31.46.4.19.1.4.15.65.15.31 0 .63-.12.94-.35.32-.22.65-.56 1.01-1v-5.78c0-.07.02-.13.06-.17a.4.4 0 0 1 .2-.13 5.94 5.94 0 0 1 1.94 0c.08.04.15.08.19.13.03.04.05.1.05.17v8.7Zm10.44-4.61c0 .3-.07.52-.2.66a.72.72 0 0 1-.56.22h-5.3c0 .37.04.7.13 1 .1.31.23.57.42.78.2.21.44.37.74.48.3.11.67.17 1.1.17a6.13 6.13 0 0 0 1.97-.3l.6-.2c.15-.07.28-.1.37-.1.06 0 .11.01.15.04.04.02.07.06.1.12a4.62 4.62 0 0 1-.03 1.46.68.68 0 0 1-.1.14c-.05.05-.16.1-.35.19a9.89 9.89 0 0 1-2.94.5c-.78 0-1.45-.1-2.04-.29-.58-.2-1.07-.49-1.46-.89-.39-.4-.68-.9-.87-1.5-.2-.6-.29-1.32-.29-2.13 0-.77.1-1.47.3-2.1.2-.62.5-1.14.88-1.58.39-.43.85-.76 1.4-.99a4.82 4.82 0 0 1 1.86-.34c.73 0 1.36.1 1.87.32a3.37 3.37 0 0 1 2.01 2.25c.16.52.24 1.09.24 1.7v.39Zm-2.39-.7a2.53 2.53 0 0 0-.41-1.63c-.3-.4-.76-.6-1.37-.6a1.67 1.67 0 0 0-1.4.65c-.15.2-.27.44-.35.71a3.5 3.5 0 0 0-.14.87h3.67Z" fill="#FFF"/></g></svg>
