<svg xmlns="http://www.w3.org/2000/svg" width="360" height="360" fill="none"><path fill="#0099FE" d="M0 0h360v360H0z"/><path fill="white" d="m261.5 66-133 104 33.5 25.5-64 98 133.5-105L198 163l63.5-97Z"/><path fill="white" d="m261.5 66 .4.3-.7-.7.3.4Zm-133 104-.3-.4-.5.4.5.4.3-.4Zm33.5 25.5.4.3.3-.4-.4-.3-.3.4Zm-64 98-.4-.3.7.7-.3-.4Zm133.5-105 .3.4.5-.4-.5-.4-.3.4ZM198 163l-.4-.3-.3.4.4.3.3-.4Zm63.2-97.4-133 104 .6.8 133-104-.6-.8Zm-133 104.8 33.5 25.5.6-.8-33.5-25.5-.6.8Zm33.4 24.8-64 98 .8.6 64-98-.8-.6ZM98.3 294l133.5-105-.6-.8-133.5 105 .6.8ZM231.8 188l-33.5-25.5-.6.8 33.5 25.5.6-.8Zm-33.4-24.8 63.5-97-.8-.6-63.5 97 .8.6Z"/></svg>
