<svg width="50" height="50" xmlns="http://www.w3.org/2000/svg" viewBox="0 0 400 400"><g fill-rule="evenodd"><path d="M97.73 48.32c-.7.81-1.78 2.11-2.39 2.88-.61.77-1.6 1.88-2.19 2.47-.6.59-.97 1.17-.85 1.3.13.13-.04.23-.37.23s-.85.5-1.16 1.1c-.31.6-1.41 1.99-2.45 3.1-1.03 1.1-2.89 3.17-4.13 4.6a542.6 542.6 0 0 1-3.13 3.57c-.47.53-.81 1.11-.76 1.3.06.18-.17.33-.5.33-.33 0-.6.14-.6.32s-.81 1.2-1.8 2.26A11.8 11.8 0 0 0 75.6 74c0 .16-.67 1-1.5 1.85-.82.86-2.49 2.73-3.7 4.15-1.2 1.43-2.65 3.07-3.2 3.66-.55.58-1.63 1.83-2.4 2.77a64.3 64.3 0 0 1-2.67 3.03c-.7.73-1.05 1.34-.8 1.36.26.01.07.22-.43.46-.5.24-.9.58-.9.76 0 .19-1.15 1.55-2.56 3.04-4.99 5.29-7.04 7.59-7.04 7.88 0 .16-.59.92-1.3 1.68a81.61 81.61 0 0 0-4.7 5.35 77.15 77.15 0 0 1-2.6 3.04c-.44.46-1.2 1.36-1.7 2-.5.64-1.84 2.1-2.97 3.26-1.13 1.16-1.95 2.1-1.83 2.1.13 0-.52.77-1.44 1.72-.91.95-2.11 2.32-2.66 3.04a86.67 86.67 0 0 1-5.2 5.93c-.66.7-1.2 1.39-1.2 1.51 0 .13-.59.82-1.31 1.54-.72.72-2.03 2.2-2.9 3.29a24.82 24.82 0 0 1-1.94 2.22c-1.48 1.08 1.46 1.15 50.48 1.15h50.28l.46 1.1c.26.6 1.21 3.08 2.13 5.5.91 2.42 1.82 4.76 2.01 5.2.2.44 1.25 3.23 2.35 6.2s3.1 8.28 4.46 11.8c1.35 3.52 2.6 6.85 2.77 7.4.28.9 1.87 5.09 2.85 7.5.93 2.3 1.13 2.84 1.88 4.9.82 2.26 1.55 4.19 5.48 14.6l3.47 9.2c.66 1.76 1.4 3.65 1.62 4.2.56 1.34.87 2.16 1.91 5 .48 1.32 1.02 2.76 1.2 3.2.18.44.72 1.88 1.2 3.2a164.2 164.2 0 0 0 1.2 3.2 1760.09 1760.09 0 0 1 8.74 23.03c2.6 7.02 3.97 10.56 4.9 12.67.42.93.76 1.83.76 2 0 .16.54 1.7 1.2 3.4.66 1.7 1.76 4.58 2.44 6.4a1349.21 1349.21 0 0 1 5.35 14.1 8120.47 8120.47 0 0 0 7.05 18.7c1.23 3.29 1.62 4.3 2.34 6 .4.96 7.77 20.51 9.6 25.5.62 1.65 1.4 3.7 1.77 4.55.36.85.65 1.95.65 2.45 0 1.25 1.06 2.11 1.72 1.4.38-.41.36-.45-.08-.2-.41.24-.47.18-.22-.23.19-.3.37-.83.4-1.16.08-.66 1.18-4.04 1.8-5.51.68-1.6 1.08-2.64 2.38-6.1.7-1.87 1.42-3.76 1.6-4.2.18-.44.72-1.88 1.2-3.2a117.4 117.4 0 0 1 1.97-5.1 397.84 397.84 0 0 1 3.62-9.7c1.35-3.52 2.73-7.21 3.06-8.2.33-.99.95-2.56 1.38-3.5.42-.93.77-1.88.77-2.1 0-.23.17-.72.37-1.1a98.3 98.3 0 0 0 2.04-5.1c.91-2.42 2-5.28 2.43-6.35.42-1.08.76-2.12.76-2.3 0-.2.34-1.12.76-2.05a256 256 0 0 0 3.42-8.9 551.92 551.92 0 0 1 4.23-11.2 83.99 83.99 0 0 1 1.64-4.1c.41-.93.75-1.88.75-2.1 0-.23.17-.72.37-1.1.2-.39.76-1.78 1.24-3.1s1.03-2.8 1.23-3.3l.72-1.8c.2-.5.76-1.98 1.24-3.3a1601.01 1601.01 0 0 0 8.27-22c.98-2.64 1.95-5.2 2.15-5.7.71-1.7 1.1-2.7 1.58-4.1.58-1.7 1.17-3.16 1.65-4.1.2-.38.35-.87.35-1.1 0-.22.34-1.17.75-2.1.42-.94.97-2.33 1.24-3.1s.64-1.76.81-2.2c.62-1.53 2.32-6.04 4.38-11.6 1.15-3.08 2.8-7.49 3.69-9.8a1287.12 1287.12 0 0 0 4.33-11.4c.18-.44.9-2.33 1.6-4.2.7-1.87 1.43-3.76 1.6-4.2.2-.44.9-2.33 1.59-4.2.68-1.87 1.4-3.76 1.59-4.2.19-.44.88-2.24 1.54-4a916.7 916.7 0 0 1 2.24-5.9 23.33 23.33 0 0 0 1.04-3.1c0-.26-27.6-.4-80.3-.4-44.16 0-80.49-.14-80.72-.3-.36-.26-1.6-5.5-3.03-12.9-.24-1.21-.6-2.92-.8-3.8-.19-.88-.55-2.59-.79-3.8l-.8-3.9c-.8-3.77-1.18-5.6-1.54-7.5-.22-1.1-.58-2.9-.82-4-.67-3.09-1.21-5.86-1.44-7.4-.12-.77-.37-1.76-.56-2.2-.2-.44-.44-1.43-.56-2.2a127 127 0 0 0-1.42-7.3c-.68-3.09-1.12-5.16-1.58-7.5-.24-1.21-.62-3.01-.84-4-.22-.99-.56-2.61-.76-3.6-.2-.99-.72-3.6-1.18-5.8-2.92-14-3.66-17.58-3.66-17.68 0-.45-.8.14-1.87 1.4" fill="#8454fc"/><path d="M100.4 46.8c0 .37.44 2.4 1.22 5.6.19.77.64 2.93 1 4.8.35 1.87 1.28 6.46 2.04 10.2l1.79 8.8c.8 4.09 1.12 5.65 1.56 7.6.25 1.1.54 2.81.66 3.8.11.99.37 1.97.57 2.18.2.2.36 1.05.36 1.88 0 .82.18 1.6.4 1.74.22.14.4 1.04.4 2s.18 1.86.4 2c.22.14.4.92.4 1.74 0 .83.16 1.67.36 1.88.2.2.46 1.1.58 1.98.23 1.66.7 4.15 1.46 7.6l.8 3.8c.2.99.55 2.66.78 3.7.7 3.18 1.12 5.19 1.62 7.7l.8 4 1.22 6.1.9 4.5h161.03l.26-1.9c.15-1.04.42-2.44.6-3.1.19-.66.53-2.19.77-3.4.86-4.44 1.73-8.75 3.08-15.2a2386.06 2386.06 0 0 0 3.76-18.2c.46-2.2 1-4.85 1.2-5.9.64-3.25 1.48-7.24 2.4-11.4l.78-3.7c.56-2.81 1.16-5.64 1.6-7.6.23-.99.59-2.79.8-4 .21-1.21.58-3.01.82-4 .24-.99.59-2.61.78-3.6.9-4.59 1.18-5.94 1.6-7.8.25-1.1.55-2.5.67-3.1l.22-1.1h-99.84c-64.79 0-99.85.14-99.85.4" fill="#b79ffc"/><path d="M100.04 48.8c0 .33.32 2.04.74 3.8.4 1.76.76 2.8.78 2.3.04-.86-.54-3.64-1.18-5.7-.18-.55-.32-.73-.34-.4m1.84 9c.12 1.1.39 2.42.58 2.93.19.5.35 1.4.37 2 .02.59.13.82.25.52.21-.53-.34-3.66-1.09-6.25-.26-.9-.29-.7-.11.8m1.5 7.4c.35 1.86 1.24 6.13 2.19 10.5a254.17 254.17 0 0 1 1.48 7.45c.1.52.25.88.33.8.18-.2-.7-5.15-1.78-9.95a206.9 206.9 0 0 1-1.57-7.9 5.93 5.93 0 0 0-.61-2c-.17-.17-.2.33-.05 1.1m4.24 20.23c0 .64.17 1.44.39 1.77.25.4.3.09.13-1-.3-1.98-.53-2.31-.52-.77m.8 4c0 .64.17 1.44.39 1.77.26.4.3.09.13-1-.3-1.98-.53-2.31-.52-.77m.79 3.88c0 .8.17 1.55.38 1.67.22.14.28-.37.14-1.27-.31-2.01-.52-2.17-.52-.4m.8 3.72c0 .64.18 1.44.4 1.77.25.4.3.09.13-1-.3-1.98-.53-2.31-.52-.77m.8 4c0 .64.19 1.44.41 1.77.3.43.33.15.14-1-.33-1.98-.56-2.3-.55-.77m.8 3.8c0 .53.18 1.24.4 1.57.27.42.31.18.13-.8-.31-1.72-.54-2.05-.53-.77m.86 3.97c0 .55.14 1.36.33 1.8l.34.8v-.8c-.01-.44-.16-1.25-.34-1.8l-.32-1-.01 1m.78 4a3.3 3.3 0 0 0 .35 1.6c.5.76.5-.06 0-1.6l-.32-1-.03 1m.82 3.6c0 .55.14 1.36.33 1.8l.34.8v-.8c-.01-.44-.16-1.25-.34-1.8l-.32-1-.01 1m.79 4.2c0 .44.15 1.16.34 1.6l.34.8v-.8c0-.44-.15-1.16-.34-1.6l-.34-.8v.8m.8 3.6c0 .44.15 1.16.34 1.6l.34.8v-.8c0-.44-.15-1.16-.34-1.6l-.34-.8v.8m.98 4.6c.27 2.17 1.28 6.44 1.33 5.6.03-.64-1.08-6.33-1.37-7-.1-.22-.08.41.04 1.4m1.62 7.8c.14.88.31 1.68.4 1.77.3.34.07-1.8-.28-2.57-.25-.56-.29-.31-.12.8m162.12 4.9a706.97 706.97 0 0 1-4.8 12.7c-.2.44-.9 2.33-1.6 4.2a190.2 190.2 0 0 1-1.57 4.2c-.18.44-.9 2.33-1.61 4.2-.7 1.87-1.42 3.76-1.6 4.2a1287.12 1287.12 0 0 1-4.33 11.4c-.89 2.31-2.54 6.72-3.69 9.8a649.98 649.98 0 0 1-4.38 11.6c-.17.44-.54 1.43-.8 2.2-.28.77-.83 2.16-1.25 3.1-.41.93-.75 1.88-.75 2.1 0 .23-.16.72-.35 1.1-.48.94-1.07 2.4-1.65 4.1a51.7 51.7 0 0 1-.9 2.4c-.84 2.06-1.1 2.71-2.83 7.4a1601.01 1601.01 0 0 1-8.27 22c-.48 1.32-1.06 2.85-1.3 3.4-.57 1.38-.89 2.23-1.9 5a38.59 38.59 0 0 1-1.23 3.1c-.2.38-.37.87-.37 1.1 0 .22-.34 1.17-.75 2.1-.42.94-1.16 2.78-1.64 4.1a551.92 551.92 0 0 0-4.22 11.2 256 256 0 0 1-3.43 8.9c-.42.93-.76 1.85-.76 2.04 0 .2-.34 1.23-.76 2.3-.42 1.08-1.52 3.94-2.43 6.36a98.3 98.3 0 0 1-2.04 5.1c-.2.38-.37.87-.37 1.1 0 .22-.35 1.17-.77 2.1a44.2 44.2 0 0 0-1.38 3.5c-.33.99-1.7 4.68-3.06 8.2a397.84 397.84 0 0 0-3.62 9.7 117.4 117.4 0 0 0-1.97 5.1 157.7 157.7 0 0 1-1.2 3.2c-.18.44-.9 2.33-1.6 4.2a115.1 115.1 0 0 1-2.33 6 39.24 39.24 0 0 0-1.84 5.6c-.04.34-.2.83-.37 1.1-.81 1.32.98-.15 2.11-1.72.7-.98 1.45-1.78 1.66-1.78.2 0 .37-.19.37-.42 0-.23.85-1.29 1.9-2.35 1.05-1.06 1.95-2.14 2-2.4.07-.27.52-.9 1-1.4 1.9-1.93 3.9-4.2 3.9-4.42 0-.12.59-.8 1.3-1.52a50.7 50.7 0 0 0 2.9-3.26c.88-1.09 2.14-2.62 2.8-3.4.66-.78 1.38-1.66 1.6-1.95.22-.29.94-1.1 1.6-1.8.66-.71 1.68-1.93 2.27-2.72.6-.79 2.12-2.5 3.4-3.78 1.28-1.3 2.06-2.19 1.73-2-.33.2.3-.6 1.4-1.76l2.7-2.88c.38-.4.71-.88.73-1.04.01-.17.96-1.3 2.1-2.53a17.17 17.17 0 0 0 2.07-2.47c0-.24 2.86-3.54 5.69-6.57.7-.76 1.7-1.95 2.18-2.65.5-.7 1.5-1.9 2.26-2.67.75-.76 1.64-1.8 1.96-2.3.33-.5.8-.79 1.05-.64.25.14.33.11.17-.06-.47-.52 3.78-5.57 4.3-5.1.17.16.2.1.07-.15-.14-.24.73-1.5 1.92-2.8 1.2-1.3 2.19-2.5 2.2-2.68 0-.18.2-.2.46-.04.27.17.36.1.2-.14-.15-.24.41-1.14 1.24-2 .82-.86 1.85-2.04 2.28-2.61.42-.57.95-.94 1.16-.8.21.13.27.06.14-.16-.14-.22.47-1.19 1.34-2.15.87-.96 1.58-1.9 1.58-2.09 0-.18.18-.23.4-.09.22.14.52-.08.67-.47.33-.93 3.83-5.33 4.23-5.33.17 0 .3-.18.3-.4 0-.23.9-1.35 2-2.5 1.1-1.16 2-2.24 2-2.4 0-.18.94-1.29 2.1-2.47a81.76 81.76 0 0 0 6.3-7.24c1.21-1.49 2.97-3.53 3.9-4.53.94-1 1.7-1.98 1.7-2.17 0-.18.2-.2.46-.05.27.17.36.1.2-.14-.15-.24.41-1.14 1.24-2.01 2.05-2.15 3.7-4.05 3.7-4.24 0-.39 2.55-2.84 2.86-2.75.19.06.3-.03.25-.2-.14-.48 1.32-2.49 3.18-4.37.94-.95 1.71-1.88 1.71-2.05 0-.17.85-1.23 1.9-2.35 1.05-1.12 2.62-2.91 3.5-3.98.88-1.06 2.27-2.6 3.1-3.41.82-.81 1.5-1.6 1.5-1.74 0-.14.22-.5.5-.8.27-.29 1.13-1.29 1.9-2.22l2-2.4c.33-.39.87-1.08 1.19-1.54.32-.46.85-.84 1.17-.84.31 0 .47-.1.34-.23-.2-.21.23-.88 1.5-2.31.23-.25 1.4-1.62 2.6-3.05 1.21-1.42 2.81-3.26 3.56-4.09.74-.83 1.63-1.9 1.96-2.37.33-.48 1.16-1.46 1.84-2.18a38.7 38.7 0 0 0 1.84-2.08 87.72 87.72 0 0 1 4.85-5.75c.8-.85 1.36-1.54 1.24-1.54-.11 0 .36-.54 1.05-1.2.7-.66 1.26-1.3 1.26-1.4 0-.4 1.8-2 2.13-1.89.18.06.23-.06.1-.26-.12-.2.34-.97 1.03-1.7.69-.75 1.9-2.16 2.7-3.14.79-.99 2.1-2.52 2.93-3.4.81-.89 2.57-2.96 3.9-4.61 1.33-1.65 3.31-3.99 4.4-5.2a89.34 89.34 0 0 0 3.14-3.69c.64-.81 1.28-1.37 1.42-1.23.14.14.25-.05.25-.41 0-.37.14-.67.3-.68.17 0 1.02-.99 1.9-2.18.88-1.2 1.82-2.18 2.1-2.2.28 0 .45-.15.4-.32-.12-.36 2.03-3.07 4.3-5.43 2.67-2.77 4.27-5.17 3.7-5.53-.28-.17-22.96-.32-50.41-.32l-49.91-.01-.4 1.1" fill="#946cfc"/><path d="M100.03 47.04c-.02.46.13 1.36.33 2 .2.64.57 2.24.83 3.56a502 502 0 0 0 .81 4 369.26 369.26 0 0 1 1.45 7.35c.1.52.28.85.4.74.1-.11.03-1.08-.18-2.15l-1.04-5.34a61.91 61.91 0 0 0-1.04-4.63 8.73 8.73 0 0 1-.4-2c0-1.12-1.13-4.53-1.16-3.53m199.84.46c-.12.6-.42 2-.67 3.1-.42 1.86-.7 3.21-1.6 7.8-.19.99-.54 2.61-.78 3.6-.24.99-.6 2.79-.82 4-.21 1.21-.57 3.01-.8 4-.44 1.96-1.04 4.79-1.6 7.6-.2.99-.55 2.66-.78 3.7-.92 4.16-1.76 8.16-2.4 11.4-.2 1.05-.74 3.7-1.2 5.9l-1.6 7.8-2.16 10.4a967.62 967.62 0 0 0-3.08 15.2 54.14 54.14 0 0 1-.77 3.4 28.6 28.6 0 0 0-.6 3.1l-.26 1.9-80.27.13c-44.16.07-21.47.12 50.42.1 104.28-.02 130.7-.13 130.7-.53 0-.28-.14-.5-.31-.5-.18 0-.61-.5-.97-1.1-.36-.6-1.53-2.03-2.59-3.16a93.22 93.22 0 0 1-3.33-3.76 50.22 50.22 0 0 0-2.84-3.15 7.9 7.9 0 0 1-1.52-1.83c-.04-.22-1.32-1.72-2.86-3.33-1.53-1.6-2.78-3.09-2.78-3.3 0-.2-.9-1.23-2-2.3-1.1-1.06-2-2.15-2-2.42s-.18-.39-.4-.25c-.22.14-.4-.04-.4-.4 0-.36-.18-.54-.4-.4-.22.14-.4.1-.4-.08 0-.3-.68-1.17-3.22-4.06a6.76 6.76 0 0 1-1.18-1.61c0-.15-.31-.54-.7-.88a29.9 29.9 0 0 1-2.3-2.55c-.88-1.07-2-2.38-2.5-2.9-.5-.53-.9-1.03-.9-1.12 0-.18-1.9-2.26-5.07-5.57-1.14-1.18-1.97-2.26-1.83-2.4.13-.12-.08-.23-.46-.23s-.6-.15-.48-.33c.18-.3-1.49-2.42-3.5-4.47a38.25 38.25 0 0 1-1.85-2.2 137.6 137.6 0 0 0-7.73-8.67 34.97 34.97 0 0 1-3-3.46 32.79 32.79 0 0 0-2.68-3.2 25.9 25.9 0 0 1-2.37-2.8c-.2-.37-1.2-1.54-2.2-2.6-1-1.07-2.02-2.29-2.25-2.71-.23-.43-.55-.66-.7-.5-.15.15-.28.08-.28-.16 0-.23-.99-1.44-2.2-2.68-1.21-1.24-2.2-2.4-2.2-2.58 0-.18-.5-.86-1.1-1.51-2.8-3.04-4.81-5.29-6.09-6.84-1.63-1.99-1.85-2.05-2.14-.59m-195.8 18.7c0 .66.14 1.56.33 2l.34.8-.02-.8c0-.44-.15-1.34-.32-2l-.3-1.2-.02 1.2m.79 4c0 .66.14 1.56.33 2 .47 1.1.47-.73 0-2.2-.31-.97-.32-.97-.33.2m.8 3.8c0 .55.14 1.36.33 1.8l.34.8v-.8c-.01-.44-.16-1.25-.34-1.8l-.32-1-.01 1m.76 4.2c.04 1.37.7 2.64.74 1.4a3.38 3.38 0 0 0-.37-1.6c-.32-.5-.38-.46-.37.2m.8 4c.04 1.37.7 2.64.74 1.4a3.38 3.38 0 0 0-.37-1.6c-.32-.5-.38-.46-.37.2m.82 3.6c.06 1.63.67 2.99.7 1.6a3.86 3.86 0 0 0-.35-1.8c-.32-.5-.38-.46-.35.2m.78 4.28c.07 1.26.71 2.17.74 1.04.02-.59-.15-1.18-.37-1.32-.22-.14-.39-.01-.37.28m.81 3.6c.12 1.57.68 2.54.72 1.24.02-.7-.14-1.38-.36-1.52-.22-.14-.38-.01-.36.28m.8 4c.12 1.57.68 2.54.72 1.24.02-.7-.14-1.38-.36-1.52-.22-.14-.38-.01-.36.28m.99 4.58c.37 2.04.57 2.2.57.43 0-.8-.2-1.56-.43-1.7-.28-.18-.33.22-.14 1.27m.62 2.74c.03.44.18 1.34.35 2l.3 1.2.05-1.4a4.44 4.44 0 0 0-.35-2c-.32-.5-.38-.46-.35.2m.96 4.8c.55 3.11 1.4 6.18 1.2 4.4-.25-2.5-.85-5.38-1.18-5.7-.17-.17-.17.42-.02 1.3m1.57 7.6c.27 1.65.65 3.48 1.39 6.6a454.9 454.9 0 0 1 2.86 14.15c.19 1.07.44 2.05.55 2.17.37.36.26-.5-.63-4.8l-1.16-5.72-.79-4a336.9 336.9 0 0 0-.84-4.1c-.2-.94-.51-2.51-.7-3.5-.42-2.26-1.02-2.97-.68-.8" fill="#a484fc"/><path d="M70.85 78.84c-1.3 1.66-.9 1.74.49.1.63-.74.99-1.33.8-1.32-.19.01-.77.56-1.29 1.22M18.4 140.9c0 .67 1.09 2.15 2.9 3.96 1.04 1.04 1.9 2.06 1.9 2.26 0 .2.95 1.37 2.1 2.58a33.71 33.71 0 0 1 2.7 3.13c.33.5 1.25 1.65 2.04 2.54.79.9 1.78 2.06 2.2 2.59.42.52 1.7 1.91 2.86 3.09 1.16 1.17 2.1 2.32 2.1 2.55 0 .23 1.25 1.67 2.78 3.2 1.53 1.54 2.6 2.8 2.4 2.8-.21 0 .18.59.86 1.3.7.72 1.9 2.11 2.7 3.1.8.99 2.14 2.46 2.96 3.27.83.8 1.5 1.64 1.5 1.85 0 .21 1.17 1.6 2.6 3.06 1.43 1.48 2.6 2.84 2.6 3.04 0 .2.99 1.35 2.2 2.56 1.21 1.21 2.2 2.34 2.2 2.52 0 .17 1.08 1.48 2.4 2.9 1.32 1.42 2.4 2.7 2.4 2.86 0 .15.99 1.3 2.2 2.56 1.21 1.26 2.2 2.45 2.2 2.66 0 .2.9 1.25 2 2.32 1.1 1.07 2 2.1 2 2.29 0 .18.36.6.8.91.44.32.8.8.8 1.09 0 .28.17.51.38.51.6 0 3.3 2.98 3 3.3-.1.1.8 1.2 2.02 2.45 1.2 1.25 2.2 2.42 2.2 2.6 0 .2.94 1.33 2.1 2.53a52.41 52.41 0 0 1 3.1 3.52c1.17 1.56 1.6 2 2.75 2.79.47.32.85.78.85 1.02 0 .38.86 1.46 3.5 4.39.4.44 1.16 1.43 1.7 2.2.53.77 1.66 2.06 2.49 2.87a8.9 8.9 0 0 1 1.51 1.7c0 .48 2.66 3.33 3.95 4.22.47.32.85.82.85 1.1 0 .28 1.08 1.6 2.4 2.94 1.32 1.34 2.4 2.65 2.4 2.9 0 .26.77 1.28 1.71 2.27.94 1 1.97 2.18 2.3 2.65.84 1.2 4.62 5.45 7.09 7.98 1.16 1.19 2.1 2.32 2.1 2.52 0 .2.86 1.25 1.9 2.33a35.35 35.35 0 0 1 2.92 3.43c.57.8 1.78 2.27 2.7 3.25.93.99 1.68 1.9 1.68 2.04 0 .14.9 1.13 2 2.2 1.1 1.07 2 2.12 2 2.34 0 .21 1.08 1.49 2.4 2.83 1.32 1.34 2.4 2.58 2.4 2.75 0 .17.74 1.12 1.64 2.1.9.98 2.11 2.41 2.7 3.18.58.77 1.92 2.24 2.96 3.27 1.04 1.04 1.9 2.05 1.9 2.27 0 .21 1.08 1.49 2.4 2.83 1.32 1.34 2.4 2.6 2.4 2.8 0 .19.9 1.27 2 2.4 1.1 1.12 2 2.13 2 2.25 0 .28.6.98 2.9 3.42 1.05 1.1 1.9 2.18 1.9 2.38 0 .2.99 1.35 2.2 2.56 1.21 1.21 2.2 2.37 2.2 2.58 0 .2 1.08 1.47 2.4 2.8a19.9 19.9 0 0 1 2.4 2.7c0 .14.88 1.1 1.96 2.14a16.22 16.22 0 0 1 2.56 3.06c.34.65 1.3 1.89 2.15 2.76.84.87 1.98 2.21 2.52 2.98s1.67 2.06 2.5 2.87c.83.8 1.51 1.59 1.51 1.74 0 .15 1.08 1.33 2.4 2.62 1.32 1.3 2.4 2.54 2.4 2.77 0 .24.59 1.05 1.3 1.8 2.08 2.21 2.86 3.13 3.54 4.2 1.03 1.6 3.03 3.6 3.6 3.6.4 0 .41-.1.04-.48a2.19 2.19 0 0 1-.48-1.35c0-.48-.3-1.57-.65-2.42-.36-.85-1.15-2.9-1.76-4.55-2.2-5.97-9.25-24.62-9.67-25.6-.51-1.2-.7-1.66-2.28-5.9l-2.41-6.4-4.64-12.3a1349.21 1349.21 0 0 0-5.35-14.1c-.68-1.81-1.78-4.7-2.44-6.4-.66-1.7-1.2-3.24-1.2-3.4 0-.17-.34-1.07-.76-2-.93-2.1-2.3-5.65-4.9-12.67A1760.09 1760.09 0 0 0 154.4 233c-.18-.44-.72-1.88-1.2-3.2-.48-1.32-1.02-2.76-1.2-3.2-.18-.44-.72-1.88-1.2-3.2a165.9 165.9 0 0 0-1.24-3.3l-.72-1.8-1.57-4.1-3.47-9.2a1309.49 1309.49 0 0 1-5.48-14.6 94.9 94.9 0 0 0-1.83-4.8c-.8-1.9-2.59-6.6-2.9-7.6-.17-.55-1.42-3.88-2.77-7.4-1.36-3.52-3.36-8.83-4.46-11.8-1.1-2.97-2.16-5.76-2.35-6.2-.2-.44-1.1-2.78-2.01-5.2a266.7 266.7 0 0 0-2.13-5.5l-.46-1.1-50.5-.1c-27.78-.05-50.51.04-50.51.2" fill="#6c34fc"/></g></svg>
