<svg xmlns="http://www.w3.org/2000/svg" width="360" height="360" fill="none"><path fill="white" d="M0 0h360v360H0z"/><path fill="#50B338" fill-rule="evenodd" d="M88 269.5c.2 0 .4.1.5.3l-.5-.3Zm8-55.5-.2 2 .2-2Zm-.5 4 .3-2-.3 2Z" clip-rule="evenodd"/><path fill="#50B338" fill-rule="evenodd" d="m233 92-4-.5-10-1.2-11-1.3c-6.8-.7-13.8-1-21-1-10.8-.2-32 2-32 2l-8 2.5-2 .5-8 2.5-1.5.5-2.5 1c-11.2 5.6-19.9 14-26 25l-2 3-3 6-2 4-2 5-5 14-1 4-1 3-3.5 12-1.5 6-5.5 23-1.5 8-.5 3-1.5 10c-.2 11 1 33 1 33s.3 2.8 1 4l2 3 3 3.5 4 3c.2 0 .4.1.5.3l.5.2 4 2c8.2 1.9 15.8.7 23-3.5 6.3-5.3 12.3-11 18-17 2.4-2 5.1-3.7 8-5 6.4-.5 12.7-.3 19 .5 15.4.2 30.7-.1 46-1h2l8-1.5 5-1.5 6-2 4-2 15-8 3-2 7-9a26.4 26.4 0 0 0 2-19l5-2 5-2 5-3 3-2c4.4-2.4 5.8-4.6 6-10 0 0 1.3-13.3 0-20l-1-3-2-3-2-3a21.8 21.8 0 0 0-7-6.5s3.5-5.5 5-9.5-1-14.5-3.5-22l-1.5-3-1-1.5-2-2.5c-3.7-4.5-14-9-14-9l-4-2-5-1.5-3-1-4.5-1.5-4.5-1Zm-69 14h46l14 2s17.6 4.4 26 8l3 2s5.4 6.7 6 11c0 3.7-1.7 6.4-5 8l-6 2-8.6 1s-23 .1-37.4-1c-3.6-.6-7.3-.8-11-.5-2.6 2.3-2.6 4.5 0 6.5a20 20 0 0 0 10 2l34 4 8 1.5 6 2.5a35 35 0 0 1 17 12 13 13 0 0 1 0 10c-4.2 4.5-9.6 7-16 7.5-5.5.8-11 1-16.5 1h-33.8c-7.5-.2-14.8-.3-22.7 0-.5.4-.9.9-1 1.5-.3 2.2.4 4 2 5.5 15.7 2 31.4 4 47 6.5 3.8.6 4.4.8 6.2 1.4l.3.1 2.1.7c1.4.4 2 .6 3.4 1.3 1.4.7 1.8 1.2 2.4 1.8l.6.7c1.7 2 2.4 4.3 2 7-.1 1.2-.9 2-1.8 2.9l-.2.1a75.7 75.7 0 0 1-54 14.5l-36-.5-9.5.5-3 1s-6.4 2.8-9.5 5L111 248a15.6 15.6 0 0 1-11 0l-2-1-1.5-2-.5-2c-.8-9.3-.5-25-.5-25l.3-2 .2-2 1.5-10 .5-2 2-8 4-13 1-5.5 1-3.5 1-4 1-4 2-6c2-4.5 5-14 5-14l2-4c4.4-8 9.7-15.3 16-22l3-2c4.4-2.9 14-7 14-7l14-3Z" clip-rule="evenodd"/></svg>
