<svg xmlns="http://www.w3.org/2000/svg" width="360" height="360" fill="none"><path fill="#0098FC" d="M0 0h360v360H0z"/><path fill="white" d="M125.5 292 184 63.5 168.5 58l-5 21-35.5-8.5-6 27.5c13.5 8.5 16 14.7 13 28l-23 94c-5.8 12-11.4 14.2-25 11.5l-7 29 34.5 7.5-5 19.5 16 4.5ZM204.5 66.5l17 4-12 50.5-30-7.5 7.5-29 12.5 3 5-21ZM218 122.5c29.2 5.8 37 13.1 31.5 35.5-8.3 22.8-19.4 24-45 15.5l-8 31.5c27.7 5.6 34.7 14.1 34 37.5-6.8 18.6-17.7 20.6-46.5 13l-8 28c40.5 9.4 59 7.5 77-20.5 8.7-23.1 8.3-36.6-2-61.5 25.5-19.3 33.6-31.8 28-60-10-29.6-21.8-39.8-54.5-46l-6.5 27ZM167 164l29.5 7-7.5 32-30-7.5 8-31.5ZM146.5 245.5 139 274l12 3.5-4.5 20 15.5 5 14-49-29.5-8Z"/><path stroke="white" stroke-linecap="round" d="M125.5 292 184 63.5 168.5 58l-5 21-35.5-8.5-6 27.5c13.5 8.5 16 14.7 13 28l-23 94c-5.8 12-11.4 14.2-25 11.5l-7 29 34.5 7.5-5 19.5 16 4.5ZM204.5 66.5l17 4-12 50.5-30-7.5 7.5-29 12.5 3 5-21ZM218 122.5c29.2 5.8 37 13.1 31.5 35.5-8.3 22.8-19.4 24-45 15.5l-8 31.5c27.7 5.6 34.7 14.1 34 37.5-6.8 18.6-17.7 20.6-46.5 13l-8 28c40.5 9.4 59 7.5 77-20.5 8.7-23.1 8.3-36.6-2-61.5 25.5-19.3 33.6-31.8 28-60-10-29.6-21.8-39.8-54.5-46l-6.5 27ZM167 164l29.5 7-7.5 32-30-7.5 8-31.5ZM146.5 245.5 139 274l12 3.5-4.5 20 15.5 5 14-49-29.5-8Z"/></svg>
