<svg xmlns="http://www.w3.org/2000/svg" width="360" height="360" fill="none"><path fill="url(#a)" d="M0 0h360v360H0z"/><path fill="#fff" d="M208.5 84v1h8l2 1 23.5 29.5V129l-2 5c-.8 1.7-2.5 5.1-2.5 5.5l-1 5-2 3.5-1 3-1.5 3-1 3.5-2 4c-.3.7-1 2.1-1 2.5 0 .4-1 2.5-1.5 3.5v4l-1.5 2-.5 2.5v25.5l-1 1.5v3.5l3.5 7 2 5 19.5 37 25 39.5 24 34 6.5-2.5-26.5-38L267 272l-6.5-11.5-7.5-11-6.5-11c-2.2-4.3-6.5-13.1-6.5-13.5 0-.4-1.7-3.5-2.5-5l-3.5-6.5-3.5-6-1.5-6V184l.5-8.5c.5-1 1.5-3.2 1.5-4 0-.8.7-3 1-4v-9l1.5-.5 4 10 103-144-88 67-7.5-59-40 42.4c2 2.4 3 5.4 3.5 9.6ZM123 157l-19 20.5L69 104 19 260l50-63.5L97.5 260l80-86.5 1-3.5a74.7 74.7 0 0 1 13.7-27h-9l.8 2 .5 4-1 2.5-1.5 2-1.5 2-1 1.5-3 1-2.5 1.5c-8.6-22.3-18.3-29.4-42.5-34.5 22.4 7.2 31.2 15 40.5 35.5l.5.5-.5 1.5-.5 2-1 1-1 2-2.5 2.5-1.5 2-2 1.5-2 1h-2l-3.5-.5-4-1.5-3-1.5-3.5-3-3-2.5-4-3.5-2-1.5-2-1-3.5-1-4-.5-4-1ZM216.5 279c-4.6-17.1-6.7-26.4-19-48 6.7 19 11 29.5 19 48ZM203.5 229.5a160 160 0 0 0 21 41.5 336 336 0 0 0-21-41.5ZM168.5 240c6.7 44 13.9 54 24.5 80.5a1125 1125 0 0 1-24.5-80.5Z"/><path fill="#fff" d="M170 81.5c6.5-9.3 10.5-13 19.5-13.5 5.7 1 9.7 2.1 12.5 3.9V69l-2.5-1.5-3-1-3-.5-3.5-.5h-3l-3 .5-3 1-2.5 1-3.5 3-1.5 1.5c-.8.5-2.5 1.6-2.5 2 0 .4-.7 1.5-1 2l-1.5 2.5-6 .5-4 1.5-1.5 1.5-2.5 1.5-2 1.5-6.5.5s-4.5.3-5.5.5a33 33 0 0 0-8 13l-4.5 1-3 .5-1.5.5-2 1-2 1.5-1.5 2.5-.5 2.5-2 4.5-.5 3-1 2.5-4 5-1.5 2-1.5 2.5-1 2v8l2 6 .5 2.5.5 2 2 3 .5 3 .5 3 .5 2 .5 2 .5 1 1-.5.5-1.5v-6.5c-.9-9.6-8.4-14.8-7-21 1.2-5.5 7.4-8.6 9.5-12.5 1-6.2 1.5-12.5 5-15.5s8-1.5 13-2.5c.3-5.1 1-8.8 5-12 4-3.3 7.7-3.2 13-2.5a23 23 0 0 1 16.5-7ZM184.5 335v-3.5l-1-1.5-1-1.5-.5-1.5-1-5-1-2-2-3.5-1-2-.5-2-1-4-1-6.5-1.5-5.5-2.5-5-.5-3-1-1.5-1.5-2v-1.5l-.5-4-1.5-2.5-.5-5.5-1-1.5-.5-1.5v-3l-1-2.5-1.5-2v-7l-1-1.5v-3l-1.5-1.5-.5-2v-3l-1-3-1-2v-2.5l-2-3-2.5-4.5v-1.5l-7-11-3 3 6 9.5c.3.5 1 1.6 1 2 0 .4.7 2.2 1 3 .5.8 1.5 2.6 1.5 3l.5 4 1.5 3.5 1 4.5.5 2.5.5 3.5 1 4.5v2.5l1.5 3 .5 4 1 3.5.5 2.5 1.5 3.5.5 3.5 1 2.5 1 3 1.5 3 1.5 5.5 1 4c.5.7 1.5 2.2 1.5 3 0 .8.7 3 1 4l1 3 1.5 4 .5 3.5 1.5 3.5 1 3 1.5 3 1 5.5 1 2.5v1h5.5ZM165.5 229c10-2.3 15.9-3.5 27-5.5-6 4.2-11.2 5.7-27 5.5ZM216 218c-4 4.8-8.5 6.6-22 8 8-3.5 12.8-5.2 22-8ZM175.5 187c0 6 1.5 9 4.5 13.5-.4-5.3-.8-8.3-4.5-13.5Z"/><path fill="#1A1E23" fill-rule="evenodd" d="m201 133 4-2.5a74.7 74.7 0 0 0-26.4 39.5l-.1 9-34 36.5 7 11v1.5l2.5 4.5 2 3v2.5l1 2 1 3v3l.5 2 1.5 1.5v3l1 1.5v7l1.5 2 1 2.5v3l.5 1.5 1 1.5.5 5.5 1.5 2.5.5 4v1.5l1.5 2 1 1.5.5 3 2.5 5 1.5 5.5 1 6.5 1 4 .5 2 1 2 2 3.5 1 2 1 5 .5 1.5 1 1.5 1 1.5v3.5h52c28.9-.5 51.1-1.2 61-6l-24-34-25-39.5-19.5-37-2-5-3.5-7V203l1-1.5V176l.5-2.5 1.5-2v-4c.5-1 1.5-3.1 1.5-3.5 0-.4.7-1.8 1-2.5l2-4 1-3.5 1.5-3 1-3 2-3.5a76 76 0 0 0 1-5c0-.4 1.7-3.8 2.5-5.5l2-5v-13.5L218.5 86l-2-1h-8l-2.5 1-3 1.5-2 1-3 1.5-1.5 1-2 1-1.5 1-1.5 1-2 1-2 1-.5.4-1.5 1.1-2 1.5-2 1.5-1.5 1-1.5 1.5-1 1.5-1.5 1.5-1 2.5-1 2v7l1 2 1 1.5 1.5 1.5 1 1 1.5 1 1.5.5 1.5 1 2 .5h8l2.5-.5 2.5-1h2.5l.5 8Zm-32.5 107c6.7 44 13.9 54 24.5 80.5a1125 1125 0 0 1-24.5-80.5Zm-3-11c10-2.3 15.9-3.5 27-5.5-6 4.2-11.2 5.7-27 5.5Zm50.5-11c-4 4.8-8.5 6.6-22 8 8-3.5 12.8-5.2 22-8Zm.5 61c-4.6-17.1-6.7-26.4-19-48 6.7 19 11 29.5 19 48Zm-13-49.5a160 160 0 0 0 21 41.5 336 336 0 0 0-21-41.5Zm-28-42.5c0 6 1.5 9 4.5 13.5-.4-5.3-.8-8.3-4.5-13.5Z" clip-rule="evenodd"/><path fill="#1A1E23" d="m205 130.5-4 2.5-.5-8H198l-2.5 1-2.5.5h-8l-2-.5-1.5-1-1.5-.5-1.5-1-1-1-1.5-1.5-1-1.5-1-2v-7l1-2 1-2.5 1.5-1.5 1-1.5 1.5-1.5 1.5-1 2-1.5 2-1.5 1.5-1.1.5-.4 2-1 2-1 1.5-1 1.5-1 2-1 1.5-1 3-1.5 2-1 3-1.5 2.5-1v-1a18 18 0 0 0-3.5-9.6c-.8-1-1.8-1.8-3-2.5-2.8-1.8-6.8-3-12.5-3.9-9 .4-13 4.2-19.5 13.5a23 23 0 0 0-16.5 7c-5.3-.7-9-.8-13 2.5-4 3.2-4.7 6.9-5 12-5 1-9.5-.5-13 2.5s-4 9.3-5 15.5c-2 3.9-8.3 7-9.5 12.5-1.4 6.2 6.1 11.4 7 21v3.6l2 .9 1.5-.5.5-.5.5-1.5.5-.5 1 .5.7.5h1.3l4 1 4 .5 3.5 1 2 1 2 1.5 4 3.5 3 2.5 3.5 3 3 1.5 4 1.5 3.5.5h2l2-1 2-1.5 1.5-2 2.5-2.5 1-2 1-1 .5-2 .5-1.5-.5-.5c-9.3-20.5-18-28.3-40.5-35.5 24.2 5 33.9 12.2 42.5 34.5l2.5-1.5 3-1 1-1.5 1.5-2 1.5-2 1-2.5-.5-4-.8-2h9c3.4-4.2 7.5-8.1 12.8-12.5Z"/><path fill="#fff" d="m123 157 .1-.5h-.1v.5Zm-19 20.5-.5.2.4.7.5-.6-.4-.3ZM69 104l.5-.2-.6-1.2-.4 1.2.5.2ZM19 260l-.5-.2.9.5-.4-.3Zm50-63.5.5-.2-.4-.8-.5.7.4.3ZM97.5 260l-.5.2.4.7.5-.6-.4-.3Zm80-86.5.4.3v-.2l-.4-.1Zm27.5-43 .3.4-.6-.8.3.4Zm-4 2.5h-.5v.9l.8-.5-.3-.4Zm-3-8v-.5h-.1l.1.5Zm-2.5 1 .1.5-.1-.5Zm-2.5.5v.5h.1l-.1-.5Zm-8 0-.1.5h.1v-.5Zm-2-.5-.3.4h.2l.1-.4Zm-1.5-1 .3-.4h-.1l-.2.4Zm-1.5-.5-.3.4h.1l.2-.4Zm-1.5-1-.4.4h.1l.3-.4ZM176 121l-.4.3.4-.3Zm-1-1.5-.4.2.4-.2Zm-1-2h-.5v.2l.5-.2Zm0-7-.4-.2h-.1v.2h.5Zm1-2 .4.2-.4-.2Zm1-2.5-.4-.4v.2l.4.2Zm1.5-1.5.4.4v-.1l-.4-.3Zm1-1.5-.4-.4v.1l.4.3Zm1.5-1.5-.3-.4.3.4Zm1.5-1 .3.4-.3-.4Zm6-4.5-.2-.4h-.1l.3.4Zm4-2 .2.4-.2-.4Zm3-2-.2-.4.2.4Zm2-1 .2.4-.2-.4Zm1.5-1-.2-.4.2.4Zm8-4-.2-.5.2.5Zm2.5-2h.5-.5Zm-19-16v-.5.5ZM170 81.5v.5h.3l.1-.2-.4-.3Zm-16.5 7v.5h.2l.1-.1-.3-.4Zm-13 2.5-.3-.4.3.4Zm-5 12v.5h.5v-.5h-.5Zm-18 18 .4.2v-.1l-.4-.1Zm-9.5 12.5.5.1-.5-.1Zm7 21h.5-.5Zm12 3.5-.1.5.1-.5Zm4 .5.1-.5-.1.5Zm3.5 1 .2-.4-.2.4Zm2 1 .3-.4-.3.4Zm2 1.5.3-.4-.3.4Zm4 3.5-.3.4.3-.4Zm3 2.5.3-.4-.3.4Zm3.5 3-.3.4.3-.4Zm3 1.5-.2.4.2-.4Zm4 1.5-.2.5h.1l.1-.5Zm3.5.5v.5-.5Zm2 0v.5h.2l-.2-.5Zm2-1 .2.4h.1l-.3-.4Zm2-1.5.3.4.1-.1-.4-.3Zm1.5-2-.4-.4v.1l.4.3Zm2.5-2.5.4.4v-.1l-.4-.3Zm1-2-.4-.4v.1l.4.3Zm1-1 .4.4V164.6l-.4-.1Zm.5-2-.5-.2.5.2Zm.5-1.5.5.2v-.3l-.1-.3-.4.4Zm-.5-.5-.5.2.1.2.4-.4ZM131.5 125l.1-.5-.3 1 .2-.5Zm42.5 34.5-.5.2.2.5.6-.3-.3-.4Zm2.5-1.5-.2-.5.2.5Zm3-1 .2.5h.1l.1-.2-.4-.3Zm1-1.5-.4-.3.4.3Zm3-4 .4.3v-.1l-.4-.2Zm1-2.5.5.2V148.9l-.5.1Zm-.5-4h.5v-.1l-.5.1Zm-36.5-43.5a.5.5 0 0 0 0 1v-1Zm71.7 16.4a.5.5 0 0 0-.4-.8l.4.8Zm4.1 5a.5.5 0 0 0-.6-.8l.6.8Zm-13.3 2.6a.5.5 0 1 0 0 1v-1Zm-33.7-42.4a.5.5 0 1 0-.6.8l.6-.8Zm40.2 1.9.2-.4v-.1h-.2v.5Zm2 1 .4-.3v-.1h-.2l-.2.4Zm23.5 29.5h.5v-.2l-.1-.1-.4.3Zm0 13.5.5.2v-.2h-.5Zm-2 5 .4.2-.4-.2Zm-3.5 10.5.4.2-.4-.2Zm-2 3.5-.4-.2.4.2Zm-1 3 .4.2-.4-.2Zm-1.5 3-.4-.2.4.2Zm-1 3.5.4.2-.4-.2Zm-4.5 10-.4-.2h-.1v.2h.5Zm0 4 .4.3.1-.1v-.2h-.5Zm-1.5 2-.4-.3v.2l.4.1Zm-.5 2.5-.5-.1v.1h.5Zm0 25.5.4.3.1-.1v-.2h-.5Zm-1 1.5-.4-.3-.1.1v.2h.5Zm-6.4 9.1a.5.5 0 0 0 .8.8l-.8-.8Zm9.9 1.4.5-.2-.5.2Zm2 5-.5.2.5-.2Zm19.5 37-.4.2.4-.2Zm25 39.5-.4.3.4-.3Zm-37 40v.5-.5Zm-52-3.5h.5v-.2l-.5.2Zm-2-3-.5.2.5-.2Zm-.5-1.5-.5.1.5-.1Zm-1-5 .5-.1v-.1l-.5.2Zm-1-2 .4-.2-.4.2Zm-2-3.5-.4.2.4-.2Zm-1-2-.5.1v.1l.5-.2Zm-1.5-6h-.5v.1l.5-.1Zm-1-6.5h.5v-.1l-.5.1Zm-1.5-5.5.5-.1v-.1l-.5.2Zm-2.5-5h-.5v.2l.5-.2Zm-.5-3h.5v-.2l-.5.2Zm-1-1.5.4-.3-.4.3Zm-1.5-2h-.5v.2l.1.1.4-.3Zm0-1.5h.5-.5Zm-.5-4h.5v-.2l-.5.2Zm-1.5-2.5h-.5v.2l.5-.2Zm-.5-5.5h.5v-.2l-.5.2Zm-1-1.5-.5.2.5-.2Zm-.5-1.5h-.5v.2l.5-.2Zm0-3h.5v-.1l-.5.1Zm-1-2.5.5-.2-.1-.1-.4.3Zm-1.5-2h-.5v.2l.1.1.4-.3Zm0-7h.5v-.2l-.5.2Zm-1-1.5h-.5v.2l.5-.2Zm0-3h.5v-.2l-.1-.2-.4.4Zm-1.5-1.5-.5.1v.2h.1l.4-.3Zm-.5-2h-.5v.1l.5-.1Zm0-3h.5v-.2l-.5.2Zm-1-3 .5-.2-.5.2Zm-1-2h-.5v.2l.5-.2Zm0-2.5h.5v-.2l-.5.2Zm-2-3-.4.2.4-.2Zm-2.5-4.5h-.5v.2l.5-.2Zm0-1.5h.5V226.2l-.5.3Zm27-47.5.4.3.1-.1v-.2h-.5Zm-37 39.5-.4-.4-.2.3.2.4.4-.3Zm6 9.5-.4.3.4-.3Zm2 5-.5.2.5-.2Zm2 7h-.5v.2l.5-.2Zm1.5 3.5.5-.1v-.1l-.5.2Zm1 4.5.5-.1-.5.1Zm.5 2.5h.5v-.1l-.5.1Zm.5 3.5h-.5v.1l.5-.1Zm1 4.5h.5v-.1l-.5.1Zm0 2.5h-.5v.2l.5-.2Zm1.5 3h.5v-.2l-.5.2Zm.5 4h-.5v.1l.5-.1Zm1 3.5.5-.1-.5.1Zm.5 2.5-.5.1v.1l.5-.2Zm1.5 3.5h.5v-.2l-.5.2Zm.5 3.5h-.5v.1l.5-.1Zm1 2.5.5-.2-.5.2Zm1 3-.5.2.5-.2Zm1.5 3 .5-.1v-.1l-.5.2Zm1.5 5.5.5-.1-.5.1Zm1 4-.5.1v.1l.1.1.4-.3Zm2.5 7 .5-.2-.5.2Zm1 3-.5.2.5-.2Zm1.5 4h.5v-.1l-.5.1Zm.5 3.5h-.5v.2l.5-.2Zm1.5 3.5.5-.2-.5.2Zm1 3-.5.2.5-.2Zm1.5 3h.5v-.2l-.5.2Zm1 5.5h-.5v.1l.5-.1Zm1 2.5h.5v-.1l-.5.1Zm0 1h-.5v.5h.5v-.5Zm-10.5-95 .5-.1-1 .2.5-.1Zm24.5 80.5-.5.2 1-.4-.5.2Zm39-162-.2-.5-.3.1v.4h.5Zm0 9 .5.2v-.2h-.5Zm-2.5 8-.4-.2-.1.2h.5Zm-.5 8.5h-.5.5Zm0 17.5h-.5v.1l.5-.1Zm1.5 6-.5.1v.2l.5-.3Zm3.5 6 .4-.2-.4.2Zm3.5 6.5-.4.2.4-.2Zm9 18.5-.4.2.4-.2Zm6.5 11-.4.3.4-.3Zm7.5 11 .4-.2-.4.2ZM267 272l-.4.2.4-.2Zm10.5 16.5-.4.3.4-.3Zm26.5 38 .2.5.6-.3-.4-.5-.4.3ZM233.5 158l.5-.2-.2-.4-.5.1.2.5Zm4 10-.5.2.4.8.5-.7-.4-.3Zm103-144 .4.3-.7-.7.3.4Zm-88 67h-.5l.1 1 .7-.6-.3-.4ZM245 32h.5l-.1-1.1-.8.8.4.3Zm-43 39.9-.3.4.3-.4Zm0-2.9h.5v-.3l-.2-.1-.3.4Zm-2.5-1.5.3-.4h-.1l-.2.4Zm-3-1 .2-.5h-.1l-.1.5Zm-3-.5v-.5.5Zm-3.5-.5V65v.5Zm-3 0V65v.5Zm-3 .5v-.5h-.1l.1.5Zm-3 1-.2-.5.2.5Zm-2.5 1-.2-.5-.1.1.3.4Zm-3.5 3-.3-.4.3.4Zm-1.5 1.5.3.4-.3-.4Zm-3.5 4-.4-.3.4.3Zm-1.5 2.5v.5h.3l.1-.2-.4-.3Zm-6 .5V79h-.1l.1.5Zm-4 1.5-.2-.5-.2.1.4.4Zm-1.5 1.5.3.4-.3-.4Zm-2.5 1.5-.3-.4.3.4Zm-2 1.5v.5h.2l.1-.1-.3-.4Zm-6.5.5v.5-.5Zm-13.5 13.5.1.5h.3v-.3l-.4-.2Zm-4.5 1v.5h.1l-.1-.5Zm-3 .5v-.5h-.1l.1.5Zm-1.5.5-.2-.5.2.5Zm-2 1-.2-.4h-.1l.3.4Zm-2 1.5-.3-.4-.1.1.4.3Zm-1.5 2.5-.4-.3v.2l.4.1Zm-.5 2.5.5.2v-.1l-.5-.1Zm-2 4.5-.5-.2v.1l.5.1Zm-.5 3 .5.2v-.1l-.5-.1Zm-1 2.5.4.3v-.1l-.4-.2Zm-4 5-.4-.3.4.3Zm-1.5 2-.4-.3.4.3Zm-1.5 2.5-.4-.3.4.3Zm-1 2-.4-.2h-.1v.2h.5Zm0 8h-.5v.2l.5-.2Zm2 6 .5-.1-.5.1Zm.5 2.5-.5.1.5-.1Zm.5 2-.5.1v.1l.5-.2Zm2 3h.5v-.2l-.5.2Zm1 6h-.5v.1l.5-.1Zm1 4-.5.1v.1l.5-.2Zm.5 1-.4.2.2.5.4-.3-.2-.4Zm1-.5.2.4h.2v-.2l-.4-.2Zm.5-1.5.5.2v-.2h-.5Zm0-3.5a.5.5 0 1 0-.3 1l.4-1Zm2 1.5-.2.5h.4l-.2-.5Zm1.5-.5.2.5.2-.1-.4-.4Zm.5-.5.4.4v-.2l-.4-.2Zm.5-1.5-.4-.4v.2l.4.2Zm.5-.5.2-.4-.3-.2-.3.2.4.4Zm1 .5.3-.4-.3.4Zm.7.5-.3.4.1.1h.2v-.5Zm43.8 72-.1-.5v1l.1-.5Zm27-5.5.3.4-.4-.9.1.5ZM216 218l.4.3 1-1.3-1.5.5.1.5Zm-22 8-.2-.5.3 1-.1-.5Zm22.5 53-.5.2 1-.3-.5.1Zm-19-48 .4-.2-.9.4.5-.2Zm6-1.5.4-.3-.9.5.5-.2Zm21 41.5-.4.3.9-.5-.5.2Zm-49-84 .4-.3-.9-1.3v1.6h.5Zm4.5 13.5-.4.3 1 1.5-.1-1.8h-.5Zm-57.4-43.8-19 20.5.8.6 19-20.5-.8-.6Zm-18.1 20.6-35-73.5-1 .4 35 73.5 1-.4Zm-36-73.5-50 156 1 .4 50-156-1-.4ZM19.4 260.3l50-63.5-.8-.6-50 63.5.8.6Zm49.1-63.6L97 260.2l1-.4-28.5-63.5-1 .4ZM98 260.3l80-86.5-.8-.6-80 86.5.8.6Zm106.8-130.2-4 2.5.6.8 4-2.5-.6-.8Zm-3.2 2.9-.5-8h-1l.5 8h1Zm-1-8.5H198v1h2.5v-1Zm-2.7 0-2.5 1 .4 1 2.5-1-.4-1Zm-2.4 1-2.5.5.2 1 2.5-.5-.2-1Zm-2.4.5h-8v1h8v-1Zm-7.9 0-2-.5-.2 1 2 .5.2-1Zm-1.8-.4-1.5-1-.6.8 1.5 1 .6-.8Zm-1.6-1-1.5-.6-.4 1 1.5.5.4-1Zm-1.4-.5-1.5-1-.6.8 1.5 1 .6-.8Zm-1.4-1-1-1-.8.8 1 1 .8-.8Zm-1-1-1.5-1.5-.8.8 1.5 1.5.8-.8Zm-1.5-1.4-1-1.5-.8.6 1 1.5.8-.6Zm-1-1.4-1-2-.8.4 1 2 .8-.4Zm-.9-1.8v-2h-1v2h1Zm0-2v-5h-1v5h1Zm0-4.8 1-2-1-.4-1 2 1 .4Zm1-2 1-2.5-1-.4-1 2.5 1 .4Zm.9-2.3 1.5-1.5-.8-.8-1.5 1.5.8.8Zm1.5-1.6 1-1.5-.8-.6-1 1.5.8.6Zm1-1.4 1.5-1.5-.8-.8-1.5 1.5.8.8Zm1.4-1.5 1.5-1-.6-.8-1.5 1 .6.8Zm1.5-1 2-1.5-.6-.8-2 1.5.6.8Zm2-1.5 2-1.5-.6-.8-2 1.5.6.8Zm4-3 2-1-.5-.8-2 1 .4.8Zm2-1 2-1-.5-.8-2 1 .4.8Zm2-1 1.5-1-.6-.8-1.5 1 .6.8Zm1.5-1 1.5-1-.6-.8-1.5 1 .6.8Zm1.4-1 2-1-.4-.8-2 1 .4.8Zm2-1 1.6-1-.6-.8-1.5 1 .6.8Zm1.5-1 3-1.5-.4-.8-3 1.5.4.8Zm3-1.5 2-1-.4-.8-2 1 .4.8Zm2-1 3-1.5-.4-.8-3 1.5.4.8Zm3-1.4 2.5-1-.4-1-2.5 1 .4 1ZM209 85v-1h-1v1h1Zm-19.5-17.5a19 19 0 0 0-11 3.5c-3 2.2-5.7 5.5-9 10.2l1 .6c3.1-4.7 5.7-7.9 8.6-10 2.8-2 6-3 10.4-3.3v-1ZM170 81c-3.5.3-6.2.7-8.7 1.7a27 27 0 0 0-8.1 5.4l.6.8a26 26 0 0 1 7.9-5.3c2.4-1 4.9-1.3 8.3-1.6v-1Zm-16.4 7c-2.7-.3-5-.5-7.2-.2-2.1.3-4.2 1.1-6.2 2.8l.6.8c2-1.6 3.8-2.3 5.8-2.6 2-.3 4.2-.1 6.8.2l.2-1Zm-13.4 2.6c-2 1.7-3.3 3.5-4 5.5-.8 2-1 4.3-1.2 6.9h1a22 22 0 0 1 1.1-6.5c.7-2 1.8-3.6 3.7-5.1l-.6-.8Zm-4.8 12c-2.5.4-4.8.3-7 .4-2.2.1-4.4.5-6.2 2.1l.6.8a8.8 8.8 0 0 1 5.6-2c2.1 0 4.6 0 7.2-.4l-.2-1Zm-13.2 2.5c-1.9 1.6-3 4-3.6 6.8-.7 2.8-1.1 6-1.6 9l1 .2c.5-3.1.8-6.2 1.5-9a12 12 0 0 1 3.3-6.2l-.6-.8Zm-5.1 15.7c-.5.9-1.3 1.8-2.1 2.7l-3 2.8c-1.9 2-3.8 4.2-4.5 7l1 .3a14 14 0 0 1 4.3-6.6l2.9-2.8c.9-1 1.7-2 2.2-3l-.8-.4Zm-9.6 12.6c-.7 3.3 1 6.4 2.7 9.6 1.8 3.3 3.9 6.9 4.3 11.5h1c-.5-5-2.6-8.7-4.4-12-1.8-3.3-3.3-6-2.6-8.9l-1-.2Zm15.4 24 4 1 .2-.9-4-1-.2 1Zm4 1.1 4 .5.2-1-4-.5-.2 1Zm4 .5 3.5 1 .2-1-3.5-1-.2 1Zm3.4 1 2 1 .4-1-2-1-.4 1Zm1.9.9 2 1.5.6-.8-2-1.5-.6.8Zm2 1.5 4 3.5.6-.8-4-3.5-.6.8Zm4 3.5 3 2.5.6-.8-3-2.5-.6.8Zm3 2.5 3.5 3 .6-.8-3.5-3-.6.8Zm3.6 3 3 1.5.4-.8-3-1.5-.4.8Zm3 1.6 4 1.5.4-1-4-1.5-.4 1Zm4.1 1.5 3.5.5.2-1-3.5-.5-.2 1Zm3.6.5h2v-1h-2v1Zm2.2 0 2-1-.4-1-2 1 .4 1Zm2.1-1.1 2-1.5-.6-.8-2 1.5.6.8Zm2.1-1.6 1.5-2-.8-.6-1.5 2 .8.6Zm1.5-2 2.5-2.4-.8-.8-2.5 2.5.8.8Zm2.5-2.6 1-2-.8-.4-1 2 .8.4Zm1-1.8 1-1-.8-.8-1 1 .8.8Zm1-1.3.6-2-1-.2-.5 2 1 .2Zm.6-2 .5-1.4-1-.4-.5 1.5 1 .4Zm.4-2-.5-.5-.8.8.5.5.8-.8Zm-.4-.3a64.1 64.1 0 0 0-15.5-23 68.5 68.5 0 0 0-25.3-12.8l-.4 1c11.2 3.6 19 7.3 25 12.6 6.1 5.4 10.6 12.4 15.2 22.6l1-.4Zm-41.1-34.8a62 62 0 0 1 26.9 10.7c6.4 5.1 11 12.4 15.2 23.5l1-.4a53.3 53.3 0 0 0-15.6-23.9 62.9 62.9 0 0 0-27.3-10.9l-.2 1Zm42.9 34.4 2.5-1.5-.6-.8-2.5 1.5.6.8Zm2.4-1.4 3-1-.4-1-3 1 .4 1Zm3.2-1.2 1-1.5-.8-.6-1 1.5.8.6Zm1-1.5 1.5-2-.8-.6-1.5 2 .8.6Zm1.5-2 1.5-2-.8-.6-1.5 2 .8.6Zm1.6-2.1 1-2.5-1-.4-1 2.5 1 .4Zm1-2.8-.5-4-1 .2.5 4 1-.2Zm-.5-4-.8-2-1 .3.8 2 1-.4Zm-.8-2a132.3 132.3 0 0 0-14.8-30.5 27.7 27.7 0 0 0-9.1-8 27 27 0 0 0-12.3-2.9v1c4.6 0 8.5 1 11.8 2.8 3.4 1.7 6.2 4.3 8.8 7.7 5.2 6.8 9.4 17 14.7 30.2l.9-.4Zm8.8.4c3.4-4.1 7.6-8 12.8-12.4l-.6-.8a96.1 96.1 0 0 0-13 12.6l.8.6Zm-9.3.2h9v-1h-9v1Zm17.4-18a68 68 0 0 0 18.6-7.6l-.4-.8a67 67 0 0 1-18.4 7.4l.2 1Zm22-3.4a13 13 0 0 1-5.3 3c-2 .5-4.2.6-7.3.4v1c3.1.2 5.5.1 7.5-.4a14 14 0 0 0 5.8-3.2l-.6-.8ZM185.9 98l1.5-1.1-.6-.8-1.5 1.1.6.8Zm1.5-1.1.5-.4-.6-.8-.5.4.6.8Zm-11.6-12.9a34 34 0 0 1 8 6.3c1.7 1.9 2.4 3.8 2.8 6.3l1-.2c-.4-2.6-1.2-4.7-3-6.8a35 35 0 0 0-8.2-6.4l-.6.8Zm32.8 1.6h3v-1h-3v1Zm3 0h3v-1h-3v1Zm3 0h2v-1h-2v1Zm1.8 0 2 1 .4-1-2-1-.4 1Zm1.8.8 23.5 29.5.8-.6-23.5-29.5-.8.6Zm23.4 29.2V129h1v-13.5h-1Zm0 13.3-2 5 1 .4 2-5-1-.4Zm-2 5a146.6 146.6 0 0 0-2.5 5.7h1v-.1l.2-.5a41.7 41.7 0 0 1 2.2-4.7l-.8-.4Zm-2.5 5.7v.2a17.8 17.8 0 0 1-.4 1.8l-.6 2.9 1 .2a203.1 203.1 0 0 0 1-5.1h-1Zm-1 4.8-2 3.5 1 .4 2-3.5-1-.4Zm-2 3.5-1 3 1 .4 1-3-1-.4Zm-1 3-1.4 3 .8.4 1.5-3-.8-.4Zm-1.5 3-1 3.6 1 .2 1-3.5-1-.2Zm-1 3.5-2 4 1 .4 2-4-1-.4Zm-2 4a25.6 25.6 0 0 0-1 2.7h1v-.3l.3-.7.6-1.3-.8-.4Zm-1 2.7-.1.4-.4 1-1 1.9 1 .4a55.3 55.3 0 0 0 1.5-3.7h-1Zm-1.5 3.5v4h1v-4h-1Zm.1 3.7-1.5 2 .8.6 1.5-2-.8-.6Zm-1.6 2.2-.5 2.5 1 .2.5-2.5-1-.2Zm-.5 2.6v2h1v-2h-1Zm0 2v10h1v-10h-1Zm0 10v11h1v-11h-1Zm0 11v2.5h1V199h-1Zm0 2.2-1 1.5 1 .6 1-1.5-1-.6Zm-1 1.8v1.5h1V203h-1Zm0 1.5v2h1v-2h-1Zm.1 1.6-6 6 .8.8 6-6-.8-.8Zm0 .6 3.5 7 .8-.4-3.5-7-.8.4Zm3.4 7 2 5 1-.4-2-5-1 .4Zm2 5 19.6 37 .8-.4-19.5-37-.8.4Zm19.6 37 25 39.6.8-.6-25-39.5-.8.6Zm25 39.6 24 34 .8-.6-24-34-.8.6Zm24.2 33.3A70.7 70.7 0 0 1 274 333a653 653 0 0 1-37.6 1.4v1c14.5-.3 27.2-.6 37.7-1.4a71.5 71.5 0 0 0 23.5-4.7l-.4-.8Zm-60.8 5.9h-52v1h52v-1Zm-51.5.5v-3.5h-1v3.5h1Zm0-3.8-1-1.5-1 .6 1 1.5 1-.6Zm-1-1.5-1-1.5-1 .6 1 1.5 1-.6Zm-1-1.4-.5-1.5-1 .4.5 1.5 1-.4Zm-.5-1.4-1-5-1 .2 1 5 1-.2Zm-1-5.1-1-2-1 .4 1 2 1-.4Zm-1-2-2-3.5-1 .4 2 3.5 1-.4Zm-2-3.5-1-2-1 .4 1 2 1-.4Zm-1-2-.5-2-1 .3.5 2 1-.2Zm-.5-2-1-4-1 .3 1 4 1-.2Zm-1-3.9-1-6.5-1 .2 1 6.5 1-.2Zm-1-6.5-1.5-5.5-1 .2 1.5 5.5 1-.2Zm-1.6-5.6-2.5-5-.8.4 2.5 5 .8-.4Zm-2.4-4.9-.5-3-1 .2.5 3 1-.2Zm-.6-3.2-1-1.5-.8.6 1 1.5.8-.6Zm-1-1.5-1.5-2-.8.6 1.5 2 .8-.6ZM168 285v-1.5h-1v1.5h1Zm0-1.6-.5-4-1 .2.5 4 1-.2Zm-.6-4.2-1.5-2.5-.8.6 1.5 2.5.8-.6ZM166 277l-.5-5.5h-1l.5 5.5h1Zm-.6-5.8-1-1.5-.8.6 1 1.5.8-.6Zm-1-1.4-.4-1.5-1 .4.5 1.5 1-.4Zm-.4-1.3v-3h-1v3h1Zm0-3.2-1-2.5-1 .4 1 2.5 1-.4Zm-1.1-2.6-1.5-2-.8.6 1.5 2 .8-.6Zm-1.4-1.7v-7h-1v7h1Zm0-7.3-1-1.5-1 .6 1 1.5 1-.6Zm-1-1.2v-3h-1v3h1Zm-.1-3.4-1.5-1.5-.8.8 1.5 1.5.8-.8ZM159 248l-.5-2-1 .2.5 2 1-.2Zm-.5-1.9v-3h-1v3h1Zm0-3.2-1-3-1 .4 1 3 1-.4Zm-1-3-1-2-1 .4 1 2 1-.4Zm-1-1.8v-2.5h-1v2.5h1Zm0-2.8-2-3-1 .6 2 3 1-.6Zm-2-3-2.6-4.4-.8.4 2.5 4.5.8-.4ZM152 228v-1.5h-1v1.5h1Zm0-1.8-7-11-1 .6 7 11 1-.6Zm-7.1-10.4 34-36.5-.8-.6-34 36.5.8.6Zm33-42.2 1.1-3.4-1-.3-1 3.5 1 .2Zm1.1-3.4a74.2 74.2 0 0 1 13.5-26.9l-.7-.6a75.2 75.2 0 0 0-13.7 27.2l1 .3Zm0 8.8v-9h-1v9h1Zm-34.9 36.1-3 3 .8.8 3-3-.8-.8Zm-3 3.7 6 9.5.8-.6-6-9.5-.8.6Zm6 9.5a13.5 13.5 0 0 1 .8 1.5l.1.2h1l-.1-.6-.3-.6a14 14 0 0 0-.7-1l-.8.5Zm.9 1.7.1.7a16 16 0 0 0 1 2.5l.9-.4a42.3 42.3 0 0 1-1-2.7v-.1h-1Zm1 3.3a35.3 35.3 0 0 1 1.5 2.6v.1h1v-.4l-.2-.3-.4-.9-1-1.7-.8.6Zm1.5 2.7v.7a57 57 0 0 0 .5 3.4l1-.2a195.1 195.1 0 0 1-.5-3.9h-1Zm.5 4.2 1.5 3.5 1-.4-1.5-3.5-1 .4Zm1.5 3.4 1 4.5 1-.2-1-4.5-1 .2Zm1 4.5.5 2.5 1-.2-.5-2.5-1 .2Zm.5 2.5.5 3.5 1-.2-.5-3.5-1 .2Zm.5 3.5 1 4.5 1-.2-1-4.5-1 .2Zm1 4.4v2.5h1v-2.5h-1Zm0 2.7 1.6 3 .8-.4-1.5-3-.8.4Zm1.5 2.9.5 4 1-.2-.5-4-1 .2Zm.5 4 1 3.5 1-.2-1-3.5-1 .2Zm1 3.5.5 2.5 1-.2-.5-2.5-1 .2Zm.5 2.6 1.5 3.5 1-.4-1.5-3.5-1 .4Zm1.5 3.4.5 3.5 1-.2-.5-3.5-1 .2Zm.5 3.6 1 2.5 1-.4-1-2.5-1 .4Zm1 2.5 1 3 1-.4-1-3-1 .4Zm1 3 1.6 3 .8-.4-1.5-3-.8.4Zm1.5 3 1.5 5.4 1-.2-1.5-5.5-1 .2Zm1.5 5.4 1 4 1-.2-1-4-1 .2Zm1.1 4.2a12.8 12.8 0 0 1 1.3 2.2l.1.5h1c0-.3 0-.6-.2-.9l-.4-.9-1-1.5-.8.6Zm1.4 2.7.4 2 .6 2.2 1-.4a38.9 38.9 0 0 1-1-3.8h-1Zm1 4.2 1 3 1-.4-1-3-1 .4Zm1 3 1.5 4 1-.4-1.5-4-1 .4Zm1.5 3.9.5 3.5 1-.2-.5-3.5-1 .2Zm.5 3.6 1.5 3.5 1-.4-1.5-3.5-1 .4Zm1.5 3.5 1 3 1-.4-1-3-1 .4Zm1 3 1.6 3 .8-.4-1.5-3-.8.4Zm1.5 2.9 1 5.5 1-.2-1-5.5-1 .2Zm1 5.6 1 2.5 1-.4-1-2.5-1 .4Zm1 2.3v1h1v-1h-1Zm.5 1.5h5.5v-1H179v1Zm-11-95.4c6.8 44 14 54.1 24.5 80.6l1-.4c-10.7-26.5-17.8-36.5-24.5-80.4l-1 .2Zm0 0c9 34 14.6 50.8 24.5 80.6l1-.4A1125 1125 0 0 1 169 240l-1 .2Zm63.5-81.6v5.5h1v-5.5h-1Zm0 5.5v3.5h1V164h-1Zm0 3.3a40.5 40.5 0 0 0-1 4.2h1a38.9 38.9 0 0 1 1-3.8l-1-.4Zm-1 4.2-.1.7-.4 1-1 2 1 .5a30.5 30.5 0 0 0 1.3-3.2l.2-1h-1Zm-1.5 4-.5 8.5h1l.5-8.5h-1Zm-.5 8.5v10.5h1V184h-1Zm0 10.5v3h1v-3h-1Zm0 3v4h1v-4h-1Zm0 4.1 1.5 6 1-.2-1.5-6-1 .2Zm1.6 6.2 3.5 6 .8-.6-3.5-6-.8.6Zm3.5 6 3.5 6.4.8-.4-3.5-6.5-.8.4Zm3.5 6.4a113.3 113.3 0 0 1 2.4 4.8h1v-.2l-.1-.2-.2-.5a33.8 33.8 0 0 0-2.3-4.3l-.8.4Zm2.4 4.8V225.3l.2.4a44.7 44.7 0 0 0 2.3 4.8l4 8.2 1-.4a909.5 909.5 0 0 1-6.5-13.4v.1h-1Zm6.6 13.8 6.5 11 .8-.6-6.5-11-.8.6Zm6.5 11 7.5 11 .8-.6-7.5-11-.8.6Zm7.5 11 6.5 11.4.8-.4-6.5-11.5-.8.4Zm6.5 11.5 10.5 16.5.8-.6-10.5-16.5-.8.6Zm10.5 16.5 26.5 38 .8-.6-26.5-38-.8.6Zm26.7 37.2-6.5 2.5.4 1 6.5-2.5-.4-1Zm-71.6-167 1.5-.5-.4-1-1.5.5.4 1Zm.8-.8 4 10 1-.4-4-10-1 .4Zm5 10 103-144-1-.5-103 144 1 .6ZM340.1 23.7l-88 67 .6.8 88-67-.6-.8ZM253 90.9l-7.5-59-1 .2 7.5 59 1-.2Zm-44-7c-.6-4.2-1.5-7.4-3.6-9.8l-.8.6c2 2.3 2.9 5.2 3.4 9.4l1-.2Zm35.6-52.2-40 42.4.8.6 40-42.4-.8-.6ZM205.4 74c-.9-1-1.9-2-3.1-2.7l-.6.9c1.2.7 2.1 1.5 3 2.4l.7-.6Zm-3.1-2.7c-3-1.8-7-3-12.7-3.9l-.2 1c5.7 1 9.6 2.1 12.3 3.8l.6-.9Zm.2.5V69h-1v2.9h1Zm-.2-3.3-2.5-1.5-.6.8 2.5 1.5.6-.8Zm-2.6-1.6-3-1-.4 1 3 1 .4-1Zm-3.1-1-3-.5-.2 1 3 .5.2-1Zm-3-.5L190 65l-.2 1 3.5.5.2-1ZM190 65h-3v1h3v-1Zm-3 0-3 .5v1l3-.5v-1Zm-3.2.5-3 1 .4 1 3-1-.4-1Zm-3 1-2.5 1 .4 1 2.5-1-.4-1Zm-2.6 1.1-3.5 3 .6.8 3.5-3-.6-.8Zm-3.6 3-1.5 1.5.8.8 1.5-1.5-.8-.8Zm-1.4 1.5a20.8 20.8 0 0 0-2.3 1.6l-.2.3-.2.5h1v.1l.1-.2.6-.5a20 20 0 0 1 1.6-1l-.6-.8Zm-2.7 2.4v.2l-.3.5-.6 1 .8.6a14.1 14.1 0 0 0 1-1.7l.1-.6h-1Zm-1 1.7-1.4 2.5.8.6 1.5-2.5-.8-.6Zm-1 2.3-6 .5v1l6-.5v-1Zm-6.2.5-4 1.5.4 1 4-1.5-.4-1Zm-4.2 1.6-1.5 1.5.8.8 1.5-1.5-.8-.8Zm-1.4 1.5-2.5 1.5.6.8 2.5-1.5-.6-.8Zm-2.5 1.5-2 1.5.6.8 2-1.5-.6-.8Zm-1.7 1.4-6.5.5v1l6.5-.5v-1Zm-6.5 1v-.5a47.2 47.2 0 0 0-5.6.5l.2 1a37.3 37.3 0 0 1 5.2-.5h.2V86Zm-5.6 0-.4.2-.4.3-.8.9a45.1 45.1 0 0 0-6.8 12l1 .3a44 44 0 0 1 7.5-12.7h.1l-.2-1Zm-8 13-4.5 1 .2 1 4.5-1-.2-1Zm-4.5 1-3 .5.2 1 3-.5-.2-1Zm-3 .5-1.6.5.4 1 1.5-.5-.4-1Zm-1.6.6-2 1 .4.8 2-1-.4-.8Zm-2.1 1-2 1.5.6.8 2-1.5-.6-.8Zm-2.1 1.6-1.5 2.5.8.6 1.5-2.5-.8-.6Zm-1.6 2.7-.5 2.5 1 .2.5-2.5-1-.2Zm-.5 2.4-2 4.5 1 .4 2-4.5-1-.4Zm-2 4.6-.5 3 1 .2.5-3-1-.2Zm-.5 3-1 2.4 1 .4 1-2.5-1-.4Zm-.9 2.3-4 5 .8.6 4-5-.8-.6Zm-4 5-1.5 2 .8.6 1.5-2-.8-.6Zm-1.5 2-1.5 2.5.8.6 1.5-2.5-.8-.6Zm-1.5 2.6-1 2 .8.4 1-2-.8-.4Zm-1.1 2.2v8h1v-8h-1Zm0 8.2 2 6 1-.4-2-6-1 .4Zm2 5.9.5 2.5 1-.2-.5-2.5-1 .2Zm.5 2.5.5 2 1-.2-.5-2-1 .2Zm.6 2.2 2 3 .8-.6-2-3-.8.6Zm2 2.8.4 3 1-.2-.5-3-1 .2Zm.4 3 .5 3 1-.2-.5-3-1 .2Zm.5 3 .5 2 1-.2-.5-2-1 .2Zm.5 2 .5 2 1-.2-.5-2-1 .2Zm.6 2.1.5 1 .8-.4-.5-1-.8.4Zm1.1 1.2 1-.5-.4-.8-1 .5.4.8Zm1.3-.7.5-1.5-1-.4-.5 1.5 1 .4Zm.5-1.7v-2h-1v2h1Zm1.7-1.5 1.5-.5-.4-1-1.5.5.4 1Zm1.7-.6.5-.5-.8-.8-.5.5.8.8Zm.6-.7.5-1.5-1-.4-.5 1.5 1 .4Zm.4-1.3.5-.5-.8-.8-.5.5.8.8Zm-.1-.5 1 .5.4-.8-1-.5-.4.8Zm1 .5.6.5.6-.8-.7-.5-.6.8Zm1 .6h1.2v-1h-1.3v1Zm43.8 72c10-2.3 15.9-3.5 27-5.5l-.2-1c-11.1 2-17 3.2-27 5.5l.2 1Zm26.6-6.4c-3 2-5.7 3.4-9.7 4.3-4 .9-9.1 1.2-17 1.1v1c7.9 0 13.2-.2 17.3-1.1 4-1 7-2.4 10-4.5l-.6-.8Zm23.4-5.4c-1.9 2.3-4 3.9-7.2 5-3.2 1.3-7.7 2-14.5 2.8l.2 1c6.7-.7 11.3-1.5 14.7-2.8 3.4-1.2 5.6-3 7.6-5.4l-.8-.6Zm-21.4 8.8c7.9-3.5 12.7-5.2 22-8l-.3-1c-9.3 2.8-14.2 4.6-22.1 8l.4 1Zm22.8 52.4c-4.6-17.1-6.7-26.5-19-48.1l-1 .4c12.4 21.6 14.5 30.8 19 48l1-.3Zm-20-47.7c6.8 19 11 29.5 19 48l1-.4a659 659 0 0 1-19-48l-1 .4Zm6-1.5c6 17.7 11.4 26.3 21 41.6l1-.6c-9.8-15.2-15.1-23.7-21-41.4l-1 .4Zm22 41.1a336.4 336.4 0 0 0-21-41.6l-1 .6a335.6 335.6 0 0 1 21 41.4l1-.4ZM175 187a21.2 21.2 0 0 0 4.6 13.8l.8-.6A20.2 20.2 0 0 1 176 187h-1Zm0 .3c2 2.6 3 4.5 3.5 6.5.6 2 .8 4 1 6.7h1c-.2-2.7-.4-4.8-1-7-.7-2-1.7-4.2-3.6-6.8l-.8.6ZM115.6 159v-1h-1v1h1Zm0-1v-3.5h-1v3.6h1Zm-.8.5.5-.9h-.1l-.4.9Zm0 0 2 1 .5-1-2-.9-.4 1Z"/><defs><radialGradient id="a" cx="0" cy="0" r="1" gradientTransform="rotate(90 0 180) scale(199.5)" gradientUnits="userSpaceOnUse"><stop stop-color="#FAFF1A"/><stop offset="1" stop-color="#FFAF2E"/></radialGradient></defs></svg>
