<svg width="324" height="151" viewBox="0 0 324 151" fill="none" xmlns="http://www.w3.org/2000/svg"><path d="M215.5 79.5S226 33 248.2 3.2L324 0s-37 34.7-47.7 53.5l44.3-3.3s-69.9 50-93.3 100.8c0 0-5.1-41.9 18.8-74.7l-30.6 3.2Z" fill="#FFD93F"/><path d="M121.2 20s-13 5.5-28 17C78.3 48.5 70 61.5 70 61.5s4.5.4 3.1 2.6a52.4 52.4 0 0 1-5.6 6.2s7.6 5 30 14.7 25.7 11.4 26 10.5c.2-.8 10.5 1.8 10.5 1.8S107.2 82 93.7 70c0 0 3.3-2.8 11.4-5.7 8.2-2.8 12.5-3.6 12.6-4.6.2-1-2.4-1.4-2.4-1.4l9.4-3s-18-.6-37.3 3.7c0 0 9-14.4 18.6-21.6 9.6-7.2 13.7-9.1 13.8-10.5.2-1.4-2-2.2-2-2.2s.5-2.7 3.4-4.8Z" fill="#fff"/><path d="M58 43S46.6 55.2 35.1 73s-26.5 40.5-23 42.8c3.7 2.3 9.3 1.4 9.3 1.4s-.7 2.6 1 2.8c1.6.2 13.6-10 28-15.4 14.2-5.5 25.6-8.5 26-10 .3-1.5-4.4-2.4-4.2-2.4.3 0 5.4-1.3 5.8-3 .4-1.6-3.3-2.3-9-1.7-5.5.7-30.7 8.2-30.7 8.2S57 62.7 67.1 49C77.3 35.6 80.7 33 80.6 31c0-2-8.4-1.7-8.4-1.7s-1.1-2.4-2.3-2.4a428 428 0 0 0-54.2 5.7c-21.6 4.2-15.4 4.4-13 6.4 2.3 2-1.3 6-1.3 6s10.6-.4 10.5 1.8c-.2 2.2-3.5 4.7-3.5 4.7s25.3-7 49.5-8.4ZM130.6 21.9s3.6 19 4.7 35.6c1.2 16.6.1 31.3 1 31.8.8.5 8-2.5 17.5-1.5s16.5 1.4 17.3.4c.8-1 0-3.1 0-3.1s1.9.3 2.2-1c.3-1.3-1.4-2.7-1.4-2.7s0-13-.8-28.9c-.7-15.8-5.6-29.6-5.6-29.6s-3.2 53.2-4.1 56.4c0 0-8.7-3-15.5-2.4 0 0-3.8-21.6-7-36.5-3-14.8-4-17.8-4.7-17.6-.7.1-1.3 2.9-1.3 2.9l-2.3-3.8Z" fill="#fff"/><path d="M243 48s-25-14.2-41.2-18c-16.2-3.8-19.2-3-18-2l4.2 2.5s-11-.2-10 1.1c1 1.4 4.2 11.6 4 22.3 0 10.7 0 18 .7 18.3.6.3 6.2-.1 6.2-.1s-1.4 2.1-.1 2.3c1.3.3 7.7-1 14.5-.7 6.7.5 9.9 1.3 9.9 1.3s.6 14.8-3.6 25.7c0 0-31.8-12.7-32.8-11.3-1.1 1.3.8 4.4.8 4.4l-12.3 5s16.8 3.2 30.6 8.7c13.8 5.5 21.7 10.2 23 9.7 1.3-.4 3.5-6.4 7-24.4 3.4-18 1.5-26.9.1-28-3-2.3-34.2-1-34.2-1s1.4-12.7.2-20.3c0 0 1.4-4.8 51 4.5Z" fill="#fff"/></svg>
